<?xml version="1.0" encoding="UTF-8"?>
<!DOCTYPE svg PUBLIC "-//W3C//DTD SVG 1.1//EN" "http://www.w3.org/Graphics/SVG/1.1/DTD/svg11.dtd">
<!-- Creator: CorelDRAW -->
<svg xmlns="http://www.w3.org/2000/svg" xml:space="preserve" width="16.1902cm" height="7.02634cm" version="1.1" style="shape-rendering:geometricPrecision; text-rendering:geometricPrecision; image-rendering:optimizeQuality; fill-rule:evenodd; clip-rule:evenodd"
viewBox="0 0 15277.37 6630.17"
 xmlns:xlink="http://www.w3.org/1999/xlink"
 xmlns:xodm="http://www.corel.com/coreldraw/odm/2003">
 <defs>
  <style type="text/css">
   <![CDATA[
    .fil1 {fill:white}
    .fil0 {fill:#EA1E19}
   ]]>
  </style>
 </defs>
 <g id="Katman_x0020_1">
  <metadata id="CorelCorpID_0Corel-Layer"/>
  <g id="_45954597664">
   <path class="fil0" d="M-0 6625.68l1259.39 2.59c66.09,-105.76 141.49,-357.47 190.43,-497.83l356.22 -1015.87c31.83,-85.8 154.28,-472.74 189.47,-495.19 31.41,42.14 523.81,1330.19 592.19,1503.85 53.91,136.92 132.57,389.33 194.91,501.21l1705.81 5.74c-23.68,-112.72 -590.4,-1496.74 -645.72,-1634.8 -215.72,-538.54 -434.79,-1097.96 -650.16,-1638.48 -87.02,-218.37 -82.35,-211.74 -1.84,-430.84 165.43,-450.21 1074.44,-2870.01 1072.26,-2915.2l-1280.01 -3.22c-77.52,95.09 -464.62,1366.29 -575.29,1651.26 -3.37,-1.77 -7.75,-9.27 -9.1,-6.91 -13.42,23.42 -152.27,-369.01 -165.38,-400.05 -138.55,-328.19 -295.89,-842.78 -423.01,-1141.07 -23.74,-55.69 -19.74,-71.89 -60.73,-95.85 -47.7,-22.08 -1486.54,-16.82 -1639.47,-3.48 -14.95,42.21 30.3,110.41 62.86,197.66 163.89,439.03 391.67,987.21 568.57,1415.51l484.18 1218.67c98.15,240.07 66.79,165.32 17.81,325.43 -13.3,43.47 -23.52,72.93 -37.12,111.19 -25.71,72.3 -1197.95,3284.04 -1206.28,3345.67z"/>
   <path class="fil1" d="M4680.69 5109.66c133.42,19.88 386.37,5.79 531.33,6.2 176.83,0.49 358.23,4.13 534.62,-0.73 730.05,-20.08 1122.08,-175.93 1146.6,-1007.43 10.53,-357.29 5.83,-722.07 5.66,-1080.02 -0.16,-351.29 8.06,-715.05 -4.18,-1064.95 -12.63,-361.18 -53.31,-640.76 -261.33,-814.05 -301.78,-251.39 -957.3,-203.26 -1408.65,-204.42 -147.19,-0.38 -406.86,-14.67 -541,4.05l-3.05 4161.34zm864.87 -3226.19l-3.33 2199.43c0.03,88.33 -14.24,273.55 10.83,342.67l116.48 16.09c120.14,-4.73 251.47,-4.04 314.55,-107.8 103.98,-171.08 68.24,-854.57 68.35,-1102.77l-0.5 -991.65c-1.82,-621.02 -11.51,-613.58 -421.65,-623.11 -107.76,-2.5 -83.98,-24.18 -84.72,267.13z"/>
   <path class="fil1" d="M7252 5106.4c63.82,16.5 765.81,16.88 842.22,3.23 7.19,-139.43 -18.01,-1894.5 25.06,-1818.21 1.62,2.87 6.97,-3.02 9.29,-3.58 65.19,-15.55 187.02,-5.29 250.07,3.79 102.23,14.73 146.79,34.27 178.14,115.52 43.01,111.51 26.64,423.43 26.53,561.34 -0.32,375.13 -13.04,774.91 26.89,1140.92l828.26 8.83c-5.86,-212.57 -23.36,-420.72 -23.64,-641.22 -0.34,-274.48 31.03,-1011.19 -62.07,-1229.24 -72.7,-170.29 -141.08,-212.06 -293.52,-266.22l-52.02 -24.58c-1.81,-1.09 -5.54,-3.46 -8.03,-5.57 86.91,-52.05 236.62,-39.49 337.78,-235.52 70.76,-137.09 97.27,-311.28 101.47,-489.1 32.5,-1379.1 -354.79,-1280.11 -1607.41,-1282.75 -115.11,-0.24 -491.23,-14.28 -576.54,6.51l-2.46 4155.85zm848.92 -3261.06l1.39 794.7c110.4,33.32 376.2,-12.34 436.55,-74.31 96.37,-98.95 65.15,-408.85 64.68,-605.97 -0.79,-190.63 -7.39,-323.61 -193.82,-346.76 -37.76,-4.69 -240.9,-9.85 -272.54,-4.23 -48.95,8.71 -36.89,36.14 -36.84,95.79 0.05,46.94 0.59,93.8 0.59,140.78z"/>
   <path class="fil1" d="M11455.13 5112.62l1121.17 2.63c38.74,-95.22 284.61,-1935.67 305.2,-2084.43 48.34,-349.18 95.42,-696.61 147.56,-1046.62 25.71,-172.6 150.38,-939.19 150.95,-1038.96 -102,-9.42 -802.1,-15.25 -846.71,9.94 -31.22,28.56 -161.42,1372.4 -166.3,1413.57 -27.78,234.46 -54.47,465.06 -84.07,705.57 -15.9,129.16 -37.96,635.92 -81.67,702.99 -16.17,-50.02 -39.29,-279.98 -45.19,-354.88 -38.55,-489.15 -167.45,-1245.81 -228.75,-1770.85 -14.71,-126.08 -63.8,-622.65 -94.99,-703.61 -76.07,-15.15 -763.2,-12.83 -845.9,1.18 -10.93,106.8 651.91,4057.98 668.7,4163.47z"/>
   <path class="fil1" d="M13410.55 1349.51l1.5 3763.5 1860.5 1.69 4.81 -759.73 -886.21 2.23c-149.03,-0.21 -124.85,44.6 -125.57,-287l1.15 -756.85c217.22,-18.72 650.75,-8.37 867.93,-8.3l3.15 -744.54c-103.05,-0.1 -818.75,17.67 -857.31,-19.21 -18.27,-24.63 -5.46,9.67 -12.8,-35.83l-1.18 -750.28c7.62,-100.37 65.81,-70.94 277.2,-70.67 118.89,0.16 578.88,10.35 642.6,-8.89l0.96 -724.65 -1712.95 -6.91c-52.34,1.93 -53.21,-2.09 -61.44,36.66 -11.26,53.04 -2.45,297.13 -2.35,368.78z"/>
   <path class="fil1" d="M9728.35 5109.3c102.84,12.79 760.87,18.16 844.61,-0.05l4.22 -4163.69 -840.91 -2.76c-38.23,198.23 -14.48,1739.01 -14.83,2072.18 -0.42,403.49 -19.19,1805.9 6.92,2094.32z"/>
   <path class="fil1" d="M10800.66 5778.55c-221.45,50.47 -384.08,265.08 -313.27,530.18 49.96,187 286.21,375.87 549.5,304.17 177.84,-48.43 389.47,-263.95 313.78,-521.2 -61.72,-209.8 -262.48,-378.69 -550.01,-313.16zm48.36 160.04c-359.74,95.76 -184.07,614.78 139.99,514.56 330.74,-102.28 195.96,-603.99 -139.99,-514.56z"/>
   <path class="fil1" d="M9359.55 6601.82l170.39 -1.99c26.13,-64.5 58.63,-405.59 60.78,-492.48 35.23,11.3 27.64,24.85 60.12,109.17 57.41,149.05 89.78,375.84 181.53,390.53 97.85,15.67 115.37,-140.46 146.16,-224.81l71.88 -204.48c10.59,-38.59 11.13,-48.14 30.88,-71.96 31.57,45.98 65.4,406.96 75.56,494.91l179.64 3.76 -128.32 -829.02c-218.13,-31.21 -194.83,84.32 -297.97,348.99l-51.71 139.38c-11.21,19.55 -7.46,13.55 -18.75,25.31 -33.37,-27.37 -41.75,-77.83 -54.1,-118.88 -12.76,-42.44 -26.61,-90.61 -41.76,-135.22 -29.24,-86.05 -53.47,-167.22 -90.45,-252.9l-176.29 -4.88 -117.58 824.58z"/>
   <path class="fil1" d="M11577.36 6591.22c78.15,36.07 455.68,16.17 519.09,-35.19 55.85,-45.24 86.73,-118.67 68.29,-221.27 -18.91,-105.24 -78.08,-98.92 -135.23,-154.13 15.34,-67.02 74.84,-77.14 86.8,-166.8 38.74,-290.46 -453.39,-255.39 -551.58,-231.61 -11.66,131.87 -17.37,718 12.63,809zm155.6 -129.53c61.77,16.02 154.9,25.32 214.36,-3.63 124.76,-60.74 21.37,-245.09 -175.26,-201.53 -45.54,10.09 -39.49,15.51 -43.89,75.13 -3.3,44.89 -1.58,85.72 4.78,130.03zm4.92 -530.95c-72.38,274.77 156.16,173.31 173.82,160.91 26.54,-18.65 116.42,-193.85 -173.82,-160.91z"/>
   <path class="fil1" d="M14981.12 6592.78c52.44,-185.54 -44.26,-280.96 76.69,-470.24 40.53,-63.41 181.16,-278.62 196.25,-347.15 -308.63,-22.9 -204.27,139.84 -354.36,275.78 -40.12,-25.39 -88.37,-142.13 -119.94,-195.61 -60.14,-101.89 -80.98,-87.14 -235.35,-79.79 10.03,67.57 194.67,317.51 241.13,405.42 77.03,145.75 -16.6,400.05 55.32,423.41 37.39,12.14 116.83,-0.67 140.25,-11.81z"/>
   <path class="fil1" d="M14049.1 5951.79c31.3,89.79 4.91,508.39 14.55,646.11 63.2,10.13 128.41,-0.16 132.46,-1.37 84.49,-25.36 -10.59,-469.46 48.22,-651.91l182.8 -15.63 14.51 -151.9 -592.18 0c-16.58,278.52 55.21,95.55 199.63,174.69z"/>
   <path class="fil1" d="M12798.84 6599.65l487.07 2.58 -0.58 -154.96c-87.57,-5.74 -241.86,25.57 -305.34,-12.99 -51.96,-100.34 22.6,-509.4 -20.08,-639.2 -18.97,-22.07 -123.26,-12.55 -155.33,-6.53l-5.74 811.1z"/>
   <path class="fil1" d="M13496.16 5794.68c-17.47,54.91 -24.42,730.75 0.91,796.69 38.73,17.1 118.93,16.91 159.82,0.3 31.15,-73.53 19.62,-681.73 8.35,-804.01 -54.47,-0.81 -130.82,-8.19 -169.08,7.02z"/>
   <path class="fil1" d="M12376.93 6593.12c39.31,15.1 110.41,13.96 149.7,-0.83 22,-56.89 26.46,-721.72 6.68,-805.77l-157.87 -9.97c-16.59,98.54 -20.54,757.28 1.48,816.58z"/>
  </g>
 </g>
</svg>
